<svg id="Layer_1" height="512" viewBox="0 0 512 512" width="512" xmlns="http://www.w3.org/2000/svg" data-name="Layer 1"><path d="m499.509 83.651-.006-.007-.012-.01a40.863 40.863 0 0 0 -28.6-11.583h-429.781a40.87 40.87 0 0 0 -28.367 11.36l-.014.013-.008.007-.005.005-.009.01a40.719 40.719 0 0 0 -12.707 29.712v285.685a41.136 41.136 0 0 0 41.11 41.11h429.779a41.135 41.135 0 0 0 41.111-41.11v-285.685a40.768 40.768 0 0 0 -12.491-29.507zm-170.6 172.073 162.318-150.58a21.813 21.813 0 0 1 1.508 8.014v285.685a21.8 21.8 0 0 1 -1.5 7.969zm141.98-164.417a21.924 21.924 0 0 1 6.025.849l-220.746 204.782-116.55-108.117-104.258-96.734a21.942 21.942 0 0 1 5.75-.78zm-450.133 315.506a21.837 21.837 0 0 1 -1.5-7.97v-285.685a21.808 21.808 0 0 1 1.6-8.251l105.662 98.033 56.732 52.627zm20.354 13.88a21.871 21.871 0 0 1 -6.07-.862l162.369-151.131 52.21 48.433a9.632 9.632 0 0 0 13.1 0l52.038-48.275 162.2 150.974a21.91 21.91 0 0 1 -6.071.861z"/></svg>